<svg xmlns="http://www.w3.org/2000/svg" xmlns:svg="http://www.w3.org/2000/svg" id="svg4921" width="90" height="30" version="1.1"><metadata id="metadata4927"/><g id="g4937" transform="matrix(-1,0,0,-1,103.81882,16.083934)"><path id="path4935" d="M 50.365234,5.6014493 55.775365,4.1304348 54.811597,9.5144559" style="fill:none;stroke:#464646;stroke-width:1.5;stroke-linejoin:round;stroke-miterlimit:4;stroke-dasharray:none"/><path id="path4931" d="M 49.873285,10.674563 55.945534,3.8761582" style="fill-opacity:1;stroke:#464646;stroke-width:1.5;stroke-linejoin:round;stroke-miterlimit:4;stroke-dasharray:none"/></g><g id="g4941" transform="matrix(1,0,0,-1,-14.006072,16.108112)"><path style="fill:none;stroke:#464646;stroke-width:1.5;stroke-linejoin:round;stroke-miterlimit:4;stroke-dasharray:none" id="path4943" d="M 50.365234,5.6014493 55.775365,4.1304348 54.811597,9.5144559"/><path style="fill-opacity:1;stroke:#464646;stroke-width:1.5;stroke-linejoin:round;stroke-miterlimit:4;stroke-dasharray:none" id="path4945" d="M 49.873285,10.674563 55.945534,3.8761582"/></g><g id="g4947" transform="translate(-14.006072,13.916067)"><path id="path4949" d="M 50.365234,5.6014493 55.775365,4.1304348 54.811597,9.5144559" style="fill:none;stroke:#464646;stroke-width:1.5;stroke-linejoin:round;stroke-miterlimit:4;stroke-dasharray:none"/><path id="path4951" d="M 49.873285,10.674563 55.945534,3.8761582" style="fill-opacity:1;stroke:#464646;stroke-width:1.5;stroke-linejoin:round;stroke-miterlimit:4;stroke-dasharray:none"/></g><g id="g4953" transform="matrix(-1,0,0,1,103.81882,13.916067)"><path style="fill:none;stroke:#464646;stroke-width:1.5;stroke-linejoin:round;stroke-miterlimit:4;stroke-dasharray:none" id="path4955" d="M 50.365234,5.6014493 55.775365,4.1304348 54.811597,9.5144559"/><path style="fill-opacity:1;stroke:#464646;stroke-width:1.5;stroke-linejoin:round;stroke-miterlimit:4;stroke-dasharray:none" id="path4957" d="M 49.873285,10.674563 55.945534,3.8761582"/></g><g id="g4983" transform="translate(-29.623188,-0.4667875)"><path style="fill:none;stroke:#464646;stroke-width:1.5;stroke-linejoin:round;stroke-miterlimit:4;stroke-dasharray:none" id="path4985" d="M 50.365234,5.6014493 55.775365,4.1304348 54.811597,9.5144559"/><path style="fill-opacity:1;stroke:#464646;stroke-width:1.5;stroke-linejoin:round;stroke-miterlimit:4;stroke-dasharray:none" id="path4987" d="M 49.873285,10.674563 55.945534,3.8761582"/></g><g id="g4989" transform="matrix(-1,0,0,1,60.189559,-0.44260874)"><path id="path4991" d="M 50.365234,5.6014493 55.775365,4.1304348 54.811597,9.5144559" style="fill:none;stroke:#464646;stroke-width:1.5;stroke-linejoin:round;stroke-miterlimit:4;stroke-dasharray:none"/><path id="path4993" d="M 49.873285,10.674563 55.945534,3.8761582" style="fill-opacity:1;stroke:#464646;stroke-width:1.5;stroke-linejoin:round;stroke-miterlimit:4;stroke-dasharray:none"/></g><g id="g4995" transform="matrix(-1,0,0,-1,60.189559,30.466788)"><path style="fill:none;stroke:#464646;stroke-width:1.5;stroke-linejoin:round;stroke-miterlimit:4;stroke-dasharray:none" id="path4997" d="M 50.365234,5.6014493 55.775365,4.1304348 54.811597,9.5144559"/><path style="fill-opacity:1;stroke:#464646;stroke-width:1.5;stroke-linejoin:round;stroke-miterlimit:4;stroke-dasharray:none" id="path4999" d="M 49.873285,10.674563 55.945534,3.8761582"/></g><g id="g5001" transform="matrix(1,0,0,-1,-29.623188,30.466788)"><path id="path5003" d="M 50.365234,5.6014493 55.775365,4.1304348 54.811597,9.5144559" style="fill:none;stroke:#464646;stroke-width:1.5;stroke-linejoin:round;stroke-miterlimit:4;stroke-dasharray:none"/><path id="path5005" d="M 49.873285,10.674563 55.945534,3.8761582" style="fill-opacity:1;stroke:#464646;stroke-width:1.5;stroke-linejoin:round;stroke-miterlimit:4;stroke-dasharray:none"/></g><path style="fill:gray;stroke:none" id="path5039" d="M 79.147779,24.283737 C 70.043956,24.262657 67.019121,15.854307 73.12306,10.713491 l -2.983116,-3.2755761 9.59276,0 0,9.7682371 -3.275576,-3.100099 c -5.532862,4.847042 -1.994671,9.076775 2.690651,10.177684 z"/></svg>